<svg id="圖層_1" data-name="圖層 1" xmlns="http://www.w3.org/2000/svg" viewBox="0 0 274.6 266.91"><path d="M107.23,38.76a48,48,0,0,1,10.09-18.08c1.45-1.62,17.14-18.57,40.09-15.8a46.65,46.65,0,0,1,25.16,12c3.4,3.21,11.82,11.18,11.36,21.36,0,.44-.05.8-.08,1" transform="translate(-12.14 -4.57)"/><path d="M194,38.11l50.25,1.17c17.55-.25,25.63,6.87,28.23,9.51,6.22,6.32,7.81,15.93,10.76,34.9a281.41,281.41,0,0,1,3,30.28c.55,10.86.9,25.83.07,43.9l-23.33-.12c.34-9.16.7-22.45.61-38.53-.23-41.4-3.12-46.39-6.42-49.53-2.69-2.55-7.31-5.47-52.3-5.12-12.7.1-15.18.41-27.5.59-43,.63-64.45,1-83.69-1.46-7.06-.89-14.22-.47-21.29-1.14-8.92-.84-15.67-1.94-20.41,2.2A12.83,12.83,0,0,0,48.4,70a110.94,110.94,0,0,0-8.34,26.7c-1.61,9.17-1.51,16.6-1.75,31.38-.08,5-.08,9.16-.06,11.93l-2.72-.14a55.31,55.31,0,0,0-13.12-.53c-2.67.23-4.51.61-6-.51-2.46-1.88-2.15-6.36-1.61-9.51-.12-1.92-.27-4.9-.29-8.56a150.94,150.94,0,0,1,5.78-44c2-6.91,3.12-10.45,5.86-14.78C31.33,53.79,38,49.54,42.28,46.86a68.27,68.27,0,0,1,32.48-10c7.66-.4,18.78-1.73,32.34.08" transform="translate(-12.14 -4.57)"/><path d="M23.11,250.56c4.31,5,9,7.64,13.72,10.37,3.06,1.76,12.55,6.91,29.54,9.5,10.91,1.66,22.48,1.05,45.61.24,6.63-.23,17.64-.7,33-.26,3.19.09,5.82.19,7.58.26,2.87.48,4.34-.24,5.11-.82s2.2-2.14,1.91-15c-.09-3.92.17-4.7,0-5.33a2.83,2.83,0,0,0-.19-.42c-.93-1.65-10.51-.41-11.59-.28-3.95.5-7.95.12-11.92.31-7.06.34-17.53.84-28.74.76A248.1,248.1,0,0,1,73.44,247c-1-.16-3.64-.83-4.26-1,0,0-.63-.18-1.26-.39C49.28,239.43,44,234.19,44,234.18h0c-6.87-6.87-7.31-18.12-5.65-49.38.21-4,.5-9.21-2.6-11.46-.88-.64-2.1-1.09-10.24-.92-5.47.11-8.21.17-8.87.46-3.27,1.43-6.17,7-3.39,37.84C16,240.39,19.64,246.56,23.11,250.56Z" transform="translate(-12.14 -4.57)"/><ellipse cx="135.17" cy="156.91" rx="54.88" ry="51.9"/><ellipse cx="233.41" cy="231.2" rx="22.76" ry="22.39"/><path d="M62.45,74.74" transform="translate(-12.14 -4.57)"/></svg>